# xmcd CD database file
#
# Track frame offsets:
#	150
#	10245
#	21417
#	31327
#	42242
#	51497
#	60015
#	71860
#	82992
#	93925
#	105565
#	116647
#	126980
#	136492
#	146777
#	159977
#	173325
#	184785
#	196712
#	210890
#	221262
#	233567
#
# Disc length: 3271 seconds
#
# Revision: 0
# Processed by: cddbd v1.5.2PL0 Copyright (c) Steve Scherf et al.
# Submitted via: CDex 1.51
#
DISCID=220cc516
DTITLE=Porter Wagoner and Dolly Parton - Always, Always and Two Of A Kind
DYEAR=1969
DGENRE=Country
TTITLE0=Milwaukee, Here I Come
TTITLE1=Yours Love
TTITLE2=I Don't Believe You've Met My Baby
TTITLE3=Malena
TTITLE4=The House Where Love Lives
TTITLE5=Why Don't You Haul Off And Love Me
TTITLE6=Always, Always
TTITLE7=There Never Was A Time
TTITLE8=Good As Gold
TTITLE9=My Hands Are Tied
TTITLE10=No Reason To Hurry Home
TTITLE11=Anything's Better Than Nothing
TTITLE12=Oh, The Pain Of Loving You
TTITLE13=Possum Holler
TTITLE14=Is It Real
TTITLE15=The Flame
TTITLE16=The Fighting Kind
TTITLE17=Two Of A Kind
TTITLE18=All I Need Is You
TTITLE19=Curse Of The Wild Weed Flower
TTITLE20=Today, Tomorrow And Forever
TTITLE21=There'll Be Love
EXTD=YEAR: 1969
EXTT0=
EXTT1=
EXTT2=
EXTT3=
EXTT4=
EXTT5=
EXTT6=
EXTT7=
EXTT8=
EXTT9=
EXTT10=
EXTT11=
EXTT12=
EXTT13=
EXTT14=
EXTT15=
EXTT16=
EXTT17=
EXTT18=
EXTT19=
EXTT20=
EXTT21=
PLAYORDER=
